<svg width="159" height="26" viewBox="0 0 159 26" fill="none" xmlns="http://www.w3.org/2000/svg">
<path d="M11.2188 5.01562C10.125 5.01562 9.14583 5.21354 8.28125 5.60938C7.42708 6.00521 6.70312 6.57812 6.10938 7.32812C5.51562 8.06771 5.0625 8.96875 4.75 10.0312C4.4375 11.0833 4.28125 12.2708 4.28125 13.5938C4.28125 15.3646 4.53125 16.8906 5.03125 18.1719C5.53125 19.4427 6.29167 20.4219 7.3125 21.1094C8.33333 21.7865 9.625 22.125 11.1875 22.125C12.1562 22.125 13.099 22.0312 14.0156 21.8438C14.9323 21.6562 15.8802 21.401 16.8594 21.0781V24.2656C15.9323 24.6302 14.9948 24.8958 14.0469 25.0625C13.099 25.2292 12.0052 25.3125 10.7656 25.3125C8.43229 25.3125 6.49479 24.8281 4.95312 23.8594C3.42188 22.8906 2.27604 21.526 1.51562 19.7656C0.765625 18.0052 0.390625 15.9427 0.390625 13.5781C0.390625 11.849 0.630208 10.2656 1.10938 8.82812C1.58854 7.39062 2.28646 6.15104 3.20312 5.10938C4.11979 4.05729 5.25 3.25 6.59375 2.6875C7.94792 2.11458 9.49479 1.82812 11.2344 1.82812C12.3802 1.82812 13.5052 1.95833 14.6094 2.21875C15.724 2.46875 16.7552 2.82812 17.7031 3.29688L16.3906 6.39062C15.599 6.01562 14.7708 5.69271 13.9062 5.42188C13.0417 5.15104 12.1458 5.01562 11.2188 5.01562ZM25.0625 0.6875V6.79688C25.0625 7.43229 25.0417 8.05208 25 8.65625C24.9688 9.26042 24.9323 9.72917 24.8906 10.0625H25.0938C25.4583 9.45833 25.9062 8.96354 26.4375 8.57812C26.9688 8.18229 27.5625 7.88542 28.2188 7.6875C28.8854 7.48958 29.5938 7.39062 30.3438 7.39062C31.6667 7.39062 32.7917 7.61458 33.7188 8.0625C34.6458 8.5 35.3542 9.18229 35.8438 10.1094C36.3438 11.0365 36.5938 12.2396 36.5938 13.7188V25H32.9219V14.4062C32.9219 13.0625 32.6458 12.0573 32.0938 11.3906C31.5417 10.7135 30.6875 10.375 29.5312 10.375C28.4167 10.375 27.5312 10.6094 26.875 11.0781C26.2292 11.5365 25.7656 12.2188 25.4844 13.125C25.2031 14.0208 25.0625 15.1146 25.0625 16.4062V25H21.3906V0.6875H25.0625ZM48.625 7.375C50.1667 7.375 51.4896 7.69271 52.5938 8.32812C53.6979 8.96354 54.5469 9.86458 55.1406 11.0312C55.7344 12.1979 56.0312 13.5938 56.0312 15.2188V17.1875H44.4844C44.526 18.8646 44.974 20.1562 45.8281 21.0625C46.6927 21.9688 47.901 22.4219 49.4531 22.4219C50.5573 22.4219 51.5469 22.3177 52.4219 22.1094C53.3073 21.8906 54.2188 21.5729 55.1562 21.1562V24.1406C54.2917 24.5469 53.4115 24.8438 52.5156 25.0312C51.6198 25.2188 50.5469 25.3125 49.2969 25.3125C47.599 25.3125 46.1042 24.9844 44.8125 24.3281C43.5312 23.6615 42.526 22.6719 41.7969 21.3594C41.0781 20.0469 40.7188 18.4167 40.7188 16.4688C40.7188 14.5312 41.0469 12.8854 41.7031 11.5312C42.3594 10.1771 43.2812 9.14583 44.4688 8.4375C45.6562 7.72917 47.0417 7.375 48.625 7.375ZM48.625 10.1406C47.4688 10.1406 46.5312 10.5156 45.8125 11.2656C45.1042 12.0156 44.6875 13.1146 44.5625 14.5625H52.4375C52.4271 13.6979 52.2812 12.9323 52 12.2656C51.7292 11.599 51.3125 11.0781 50.75 10.7031C50.1979 10.3281 49.4896 10.1406 48.625 10.1406ZM67.1406 25.3125C65.5052 25.3125 64.0885 24.9948 62.8906 24.3594C61.6927 23.724 60.7708 22.75 60.125 21.4375C59.4792 20.125 59.1562 18.4583 59.1562 16.4375C59.1562 14.3333 59.5104 12.6146 60.2188 11.2812C60.9271 9.94792 61.9062 8.96354 63.1562 8.32812C64.4167 7.69271 65.8594 7.375 67.4844 7.375C68.5156 7.375 69.4479 7.47917 70.2812 7.6875C71.125 7.88542 71.8385 8.13021 72.4219 8.42188L71.3281 11.3594C70.6927 11.099 70.0417 10.8802 69.375 10.7031C68.7083 10.526 68.0677 10.4375 67.4531 10.4375C66.4427 10.4375 65.599 10.6615 64.9219 11.1094C64.2552 11.5573 63.7552 12.224 63.4219 13.1094C63.099 13.9948 62.9375 15.0938 62.9375 16.4062C62.9375 17.6771 63.1042 18.75 63.4375 19.625C63.7708 20.4896 64.2656 21.1458 64.9219 21.5938C65.5781 22.0312 66.3854 22.25 67.3438 22.25C68.2917 22.25 69.1406 22.1354 69.8906 21.9062C70.6406 21.6771 71.349 21.3802 72.0156 21.0156V24.2031C71.3594 24.5781 70.6562 24.8542 69.9062 25.0312C69.1562 25.2188 68.2344 25.3125 67.1406 25.3125ZM79.75 0.6875V12.4375C79.75 12.9688 79.7292 13.5521 79.6875 14.1875C79.6458 14.8125 79.6042 15.401 79.5625 15.9531H79.6406C79.9115 15.5885 80.2344 15.1615 80.6094 14.6719C80.9948 14.1823 81.3594 13.7552 81.7031 13.3906L86.9844 7.70312H91.2031L84.2812 15.1406L91.6562 25H87.3438L81.8125 17.4062L79.75 19.1719V25H76.0781V0.6875H79.75ZM100.234 25.3125C98.1719 25.3125 96.5156 24.5625 95.2656 23.0625C94.026 21.5521 93.4062 19.3281 93.4062 16.3906C93.4062 13.4219 94.0365 11.1771 95.2969 9.65625C96.5677 8.13542 98.2396 7.375 100.312 7.375C101.188 7.375 101.953 7.49479 102.609 7.73438C103.266 7.96354 103.828 8.27604 104.297 8.67188C104.776 9.06771 105.182 9.51042 105.516 10H105.688C105.635 9.67708 105.573 9.21354 105.5 8.60938C105.438 7.99479 105.406 7.42708 105.406 6.90625V0.6875H109.094V25H106.219L105.562 22.6406H105.406C105.094 23.1406 104.698 23.5938 104.219 24C103.75 24.3958 103.188 24.7135 102.531 24.9531C101.885 25.1927 101.12 25.3125 100.234 25.3125ZM101.266 22.3281C102.839 22.3281 103.948 21.875 104.594 20.9688C105.24 20.0625 105.573 18.7031 105.594 16.8906V16.4062C105.594 14.4688 105.281 12.9844 104.656 11.9531C104.031 10.9115 102.891 10.3906 101.234 10.3906C99.9115 10.3906 98.901 10.9271 98.2031 12C97.5156 13.0625 97.1719 14.5469 97.1719 16.4531C97.1719 18.3594 97.5156 19.8177 98.2031 20.8281C98.901 21.8281 99.9219 22.3281 101.266 22.3281ZM121.141 7.375C123.328 7.375 124.979 7.85938 126.094 8.82812C127.219 9.79688 127.781 11.3073 127.781 13.3594V25H125.172L124.469 22.5469H124.344C123.854 23.1719 123.349 23.6875 122.828 24.0938C122.307 24.5 121.703 24.8021 121.016 25C120.339 25.2083 119.51 25.3125 118.531 25.3125C117.5 25.3125 116.578 25.125 115.766 24.75C114.953 24.3646 114.312 23.7812 113.844 23C113.375 22.2188 113.141 21.2292 113.141 20.0312C113.141 18.25 113.802 16.9115 115.125 16.0156C116.458 15.1198 118.469 14.625 121.156 14.5312L124.156 14.4219V13.5156C124.156 12.3177 123.875 11.4635 123.312 10.9531C122.76 10.4427 121.979 10.1875 120.969 10.1875C120.104 10.1875 119.266 10.3125 118.453 10.5625C117.641 10.8125 116.849 11.1198 116.078 11.4844L114.891 8.89062C115.734 8.44271 116.693 8.07812 117.766 7.79688C118.849 7.51562 119.974 7.375 121.141 7.375ZM124.141 16.7344L121.906 16.8125C120.073 16.875 118.786 17.1875 118.047 17.75C117.307 18.3125 116.938 19.0833 116.938 20.0625C116.938 20.9167 117.193 21.5417 117.703 21.9375C118.214 22.3229 118.885 22.5156 119.719 22.5156C120.99 22.5156 122.042 22.1562 122.875 21.4375C123.719 20.7083 124.141 19.6406 124.141 18.2344V16.7344ZM139.359 22.3438C139.839 22.3438 140.312 22.3021 140.781 22.2188C141.25 22.125 141.677 22.0156 142.062 21.8906V24.6719C141.656 24.849 141.13 25 140.484 25.125C139.839 25.25 139.167 25.3125 138.469 25.3125C137.49 25.3125 136.609 25.151 135.828 24.8281C135.047 24.4948 134.427 23.9271 133.969 23.125C133.51 22.3229 133.281 21.2135 133.281 19.7969V10.5H130.922V8.85938L133.453 7.5625L134.656 3.85938H136.969V7.70312H141.922V10.5H136.969V19.75C136.969 20.625 137.188 21.276 137.625 21.7031C138.062 22.1302 138.641 22.3438 139.359 22.3438ZM152.359 7.375C154.547 7.375 156.198 7.85938 157.312 8.82812C158.438 9.79688 159 11.3073 159 13.3594V25H156.391L155.688 22.5469H155.562C155.073 23.1719 154.568 23.6875 154.047 24.0938C153.526 24.5 152.922 24.8021 152.234 25C151.557 25.2083 150.729 25.3125 149.75 25.3125C148.719 25.3125 147.797 25.125 146.984 24.75C146.172 24.3646 145.531 23.7812 145.062 23C144.594 22.2188 144.359 21.2292 144.359 20.0312C144.359 18.25 145.021 16.9115 146.344 16.0156C147.677 15.1198 149.688 14.625 152.375 14.5312L155.375 14.4219V13.5156C155.375 12.3177 155.094 11.4635 154.531 10.9531C153.979 10.4427 153.198 10.1875 152.188 10.1875C151.323 10.1875 150.484 10.3125 149.672 10.5625C148.859 10.8125 148.068 11.1198 147.297 11.4844L146.109 8.89062C146.953 8.44271 147.911 8.07812 148.984 7.79688C150.068 7.51562 151.193 7.375 152.359 7.375ZM155.359 16.7344L153.125 16.8125C151.292 16.875 150.005 17.1875 149.266 17.75C148.526 18.3125 148.156 19.0833 148.156 20.0625C148.156 20.9167 148.411 21.5417 148.922 21.9375C149.432 22.3229 150.104 22.5156 150.938 22.5156C152.208 22.5156 153.26 22.1562 154.094 21.4375C154.938 20.7083 155.359 19.6406 155.359 18.2344V16.7344Z" fill="white"/>
</svg>
